<?xml version="1.0" encoding="UTF-8"?>
<svg id="Layer_1" xmlns="http://www.w3.org/2000/svg" version="1.1" viewBox="0 0 442 51.4">
  <!-- Generator: Adobe Illustrator 29.3.1, SVG Export Plug-In . SVG Version: 2.1.0 Build 151)  -->
  <defs>
    <style>
      .st0 {
        fill: #121214;
      }
    </style>
  </defs>
  <path class="st0" d="M79.1,35.3c3.7,0,6.2-1.8,7.4-3.8.2-.2.5-.3.7,0l3,3.3c.2.2.2.4,0,.6-2.2,2.6-5.9,4.7-11.4,4.7-8.2,0-12.4-5.5-12.4-12.6s4.7-12.7,12.4-12.7,11.3,4.8,11.3,13.6c0,.2-.2.4-.4.4h-17c-.3,0-.5.2-.4.5.7,3.9,3.3,5.9,6.8,5.9h0ZM73,25h10.9c.3,0,.5-.2.4-.5-.5-3.2-2.5-5-5.4-5s-5.4,1.6-6.4,4.9c0,.3.1.6.4.6ZM126.2,26.2c0-4.4-1.7-6.5-5.1-6.5s-5.5,2.4-5.5,6.8v12.5c0,.2-.2.4-.4.4h-4.6c-.2,0-.4-.2-.4-.4v-12.4c0-4.9-1.4-6.9-4.9-6.9s-5.7,3.7-5.7,7.7v11.6c0,.2-.2.4-.4.4h-4.6c-.2,0-.4-.2-.4-.4V15.8c0-.2.2-.4.4-.4h4.3c.3,0,.5.2.4.5l-.5,3.3c0,.5.6.7.8.3,1.5-2.7,3.9-4.7,7.7-4.7s6,1.4,7.4,4.8c.1.3.6.4.8,0,1.5-2.7,4-4.8,7.7-4.8s8.6,3.4,8.6,10.7v13.5c0,.2-.2.4-.4.4h-4.6c-.2,0-.4-.2-.4-.4v-12.8h0ZM151.1,40.1c-3.5,0-6.1-1.4-7.7-3.6-.2-.3-.8-.2-.8.3v11.4c0,.2-.2.4-.4.4h-4.6c-.2,0-.4-.2-.4-.4V15.9c0-.2.2-.4.4-.4h4.3c.3,0,.5.2.4.5l-.4,3c0,.5.6.7.8.3,1.6-2.6,4.3-4.4,8.4-4.4,5.9,0,10.7,4.4,10.7,12.6s-4.7,12.6-10.7,12.6h0ZM142.6,27.5c0,5.4,2.8,7.9,6.7,7.9s6.6-2.4,6.6-7.9-2.7-7.9-6.6-7.9-6.7,2.5-6.7,7.9ZM165.7,5.1h4.6c.2,0,.4.2.4.4v33.5c0,.2-.2.4-.4.4h-4.6c-.2,0-.4-.2-.4-.4V5.5c0-.2.2-.4.4-.4ZM186.8,40.1c-6.9,0-12.8-4.5-12.8-12.6s5.9-12.6,12.8-12.6,12.8,4.5,12.8,12.6-5.8,12.6-12.8,12.6ZM179.9,27.4c0,5.3,3.2,7.9,6.9,7.9s6.9-2.5,6.9-7.9-3.2-7.8-6.9-7.8-6.9,2.6-6.9,7.8h0ZM203.8,49c-2,0-3.9-.6-5.2-1.6-.2-.1-.2-.4-.1-.6l2-3.7c.1-.3.5-.3.7,0,.8.8,1.8,1.3,3,1.3s3-1.4,4.1-4.8h0s-9.8-23.5-9.8-23.5c-.1-.3,0-.6.4-.6h5c.2,0,.4.1.4.3l6.2,16.3c.1.4.7.4.8,0l6.1-16.2c0-.2.2-.3.4-.3h4.8c.3,0,.5.3.4.6l-10.4,25.1c-2.4,5.9-5.1,7.9-9,7.9h0ZM258.2,26.2c0-4.4-1.7-6.5-5.1-6.5s-5.5,2.4-5.5,6.8v12.5c0,.2-.2.4-.4.4h-4.6c-.2,0-.4-.2-.4-.4v-12.4c0-4.9-1.4-6.9-4.9-6.9s-5.7,3.7-5.7,7.7v11.6c0,.2-.2.4-.4.4h-4.6c-.2,0-.4-.2-.4-.4V15.8c0-.2.2-.4.4-.4h4.3c.3,0,.5.2.4.5l-.5,3.3c0,.5.6.7.8.3,1.5-2.7,3.9-4.7,7.7-4.7s6,1.4,7.4,4.8c.1.3.6.4.8,0,1.5-2.7,4-4.8,7.7-4.8s8.6,3.4,8.6,10.7v13.5c0,.2-.2.4-.4.4h-4.6c-.2,0-.4-.2-.4-.4v-12.8h0ZM279.3,35.3c3.7,0,6.1-1.8,7.4-3.8.2-.2.5-.3.7,0l3,3.3c.1.2.2.4,0,.6-2.2,2.6-6,4.7-11.4,4.7-8.2,0-12.4-5.5-12.4-12.6s4.7-12.7,12.4-12.7,11.3,4.8,11.3,13.6c0,.2-.2.4-.5.4h-17c-.3,0-.5.2-.4.5.7,3.9,3.4,5.9,6.8,5.9h0ZM273.2,25h10.9c.3,0,.5-.2.4-.5-.5-3.2-2.5-5-5.5-5s-5.4,1.6-6.4,4.9c0,.3.1.6.4.6ZM311.2,26.5c0-5-1.9-6.8-5.6-6.8s-6,2.8-6,7.1v12.2c0,.2-.2.4-.4.4h-4.6c-.2,0-.4-.2-.4-.4V15.8c0-.2.2-.4.4-.4h4.3c.3,0,.5.2.4.5l-.5,3.5c0,.5.6.7.8.3,1.6-2.9,4.2-4.9,8.1-4.9s9,3.3,9,11v13.2c0,.2-.2.4-.4.4h-4.7c-.2,0-.4-.2-.4-.4v-12.6h0ZM323.2,30.4v-9.9c0-.2-.2-.4-.5-.4h-3.9c-.2,0-.4-.2-.4-.4v-3.7c0-.2.2-.4.4-.4h3.9c.2,0,.4-.2.4-.4v-4.7c0-.2,0-.3.2-.4l5.3-3h0v8.1c0,.2.2.4.4.4h8c.2,0,.4.2.4.4v3.7c0,.2-.2.4-.4.4h-8c-.2,0-.4.2-.4.4v9.5c0,3.9,1.2,5.3,3.5,5.3s3.4-.9,4.4-2.2c.2-.2.5-.2.7,0l2.3,3.4c.1.2.1.4,0,.6-1.5,1.4-4.2,3-8.1,3s-8.4-3.2-8.4-9.7h0ZM365.4,26.1c0-4.6-1.8-6.5-5.1-6.5-4.9,0-6.5,3.8-6.5,7.5v11.9c0,.2-.2.4-.4.4h-4.6c-.2,0-.4-.2-.4-.4V5.5c0-.2.2-.4.4-.4h4.6c.2,0,.4.2.4.4v13c0,.4.6.6.8.3,1.6-2.4,4.1-4,7.5-4s8.8,3.1,8.8,11.1v13.1c0,.2-.2.5-.4.5h-4.7c-.2,0-.4-.2-.4-.4v-12.9h0ZM386.6,35.3c3.7,0,6.1-1.8,7.4-3.8.2-.2.5-.3.7,0l3,3.3c.1.2.2.4,0,.6-2.2,2.6-6,4.7-11.4,4.7-8.2,0-12.4-5.5-12.4-12.6s4.7-12.7,12.4-12.7,11.3,4.8,11.3,13.6c0,.2-.2.4-.5.4h-17c-.3,0-.5.2-.4.5.7,3.9,3.4,5.9,6.8,5.9h0ZM380.4,25h10.9c.3,0,.5-.2.4-.5-.5-3.2-2.5-5-5.5-5s-5.4,1.6-6.4,4.9c0,.3.1.6.4.6ZM401.4,39V15.9c0-.2.2-.4.4-.4h4.3c.3,0,.5.2.4.5l-.4,2.5c0,.5.6.7.8.3,1.3-2.4,3.3-3.9,5.9-3.9s3.3.5,4.5,1.4c.2.1.2.4.1.6l-2.1,4.4c-.1.3-.5.3-.7.1-.9-.8-2.1-1.2-3.3-1.2-2.7,0-4.5,2.2-4.5,8.4v10.5c0,.2-.2.4-.4.4h-4.6c-.2,0-.4-.2-.4-.4h0ZM429.3,40.1c-6.9,0-12.8-4.5-12.8-12.6s5.9-12.6,12.8-12.6,12.8,4.5,12.8,12.6-5.8,12.6-12.8,12.6ZM422.3,27.4c0,5.3,3.2,7.9,6.9,7.9s6.9-2.5,6.9-7.9-3.2-7.8-6.9-7.8-6.9,2.6-6.9,7.8h0Z"/>
  <path class="st0" d="M41.1,33c.8,0,1.6.4,1.9,1.1.4.7.4,1.5,0,2.2h0c-2.8,4.5-7.3,7.7-12.3,8.9-1.4.3-2.3,1.6-2.3,3s1.4,3.1,3,3.1.5,0,.7,0c5.6-1.4,10.8-4.6,14.4-9.2,3.8-4.7,5.8-10.4,5.8-16.4s-2-11.7-5.8-16.4c-3.7-4.6-8.8-7.8-14.4-9.2-.2,0-.5,0-.7,0-1.7,0-3,1.4-3,3.1s1,2.7,2.3,3.1c5.1,1.2,9.6,4.4,12.3,8.9h0c.4.7.4,1.5,0,2.2-.4.7-1.2,1.1-1.9,1.1s-.6,0-.9-.2c-1.1-.5-2.3-.8-3.5-.8-4.4,0-8,3.4-8.3,7.8h0c0,.2,0,.3,0,.4v.2c0,.1,0,.2,0,.3h0c.2,4.4,3.9,7.9,8.3,7.9s2.4-.3,3.5-.8c.3-.1.6-.2.9-.2"/>
  <path class="st0" d="M20.9,0c-.2,0-.5,0-.7,0-5.7,1.3-10.8,4.6-14.4,9.2C2,14,0,19.7,0,25.7s2,11.7,5.8,16.4c3.7,4.6,8.8,7.8,14.4,9.2.2,0,.5,0,.7,0,1.7,0,3-1.4,3-3.1s-1-2.7-2.3-3c-5-1.2-9.5-4.4-12.3-8.9h0c-.4-.7-.4-1.5,0-2.2.4-.7,1.2-1.1,2-1.1s.6,0,1,.2c1.1.5,2.3.8,3.5.8,4.4,0,8-3.4,8.3-7.8h0c0-.2,0-.3,0-.4v-.2c0-.1,0-.2,0-.3h0c-.2-4.4-3.9-7.9-8.3-7.9s-2.4.3-3.5.8c-.3.1-.6.2-1,.2-.8,0-1.5-.4-2-1.1-.4-.7-.4-1.5,0-2.2h0s0,0,0,0c2.8-4.4,7.3-7.7,12.3-8.9,1.4-.3,2.3-1.6,2.3-3.1s-1.4-3.1-3-3.1"/>
</svg>